<svg version="1.1" id="Layer_1" xmlns="http://www.w3.org/2000/svg" xmlns:xlink="http://www.w3.org/1999/xlink" x="0px" y="0px"
	 width="100%" viewBox="0 0 512 512" enable-background="new 0 0 512 512" xml:space="preserve">
<path fill="#FFFFFF" opacity="1.000000" stroke="none" 
	d="
M269.000000,1.000000 
	C350.287872,1.000000 431.575775,1.000000 512.931824,1.000000 
	C512.931824,171.666656 512.931824,342.333313 512.927246,513.000000 
	C504.260925,513.000000 495.599121,513.000000 486.559082,512.654175 
	C491.540985,509.314209 492.911926,504.354034 491.845978,498.913788 
	C489.107788,484.938690 486.261627,470.971497 482.925964,457.129517 
	C476.940369,432.291016 467.761414,408.696747 453.977509,387.059753 
	C445.191101,373.267548 434.760620,360.971039 420.979553,351.389404 
	C420.987305,345.765625 421.117981,340.596130 420.957550,335.435638 
	C420.550751,322.351257 412.101135,315.283997 400.926483,315.875214 
	C389.960205,316.455383 378.938690,315.991394 368.053406,315.657379 
	C369.251465,313.911926 370.269379,312.435852 371.434875,311.087311 
	C378.089996,303.387054 385.322876,296.116974 391.340820,287.950134 
	C402.401123,272.940369 413.065826,257.612915 423.260376,242.003159 
	C427.928406,234.855515 432.344788,226.963959 430.874603,217.822952 
	C429.826080,211.303436 428.068298,204.853043 426.106659,198.533310 
	C418.363708,173.588257 407.816010,149.816742 395.371887,126.883965 
	C389.965149,116.920135 384.677826,106.855919 378.630371,97.283241 
	C368.192352,80.760582 356.957031,64.837502 343.887543,50.151012 
	C329.364166,33.830750 313.606598,19.204655 293.873413,9.624912 
	C286.034119,5.819215 277.317291,3.821067 269.000000,1.000000 
z"/>
<path fill="#FFFFFF" opacity="1.000000" stroke="none" 
	d="
M28.000000,513.000000 
	C19.005032,513.000000 10.010061,513.000000 1.011319,513.000000 
	C1.007546,342.433777 1.007546,171.867523 1.007546,1.000000 
	C82.020645,1.000000 163.041672,1.000000 244.379669,1.372662 
	C240.778336,2.793775 236.860031,3.842225 232.550827,4.932230 
	C228.077957,6.493680 223.836426,7.686429 219.939941,9.586703 
	C195.103653,21.699093 176.415863,41.174309 159.559830,62.243271 
	C141.257828,85.119598 126.202057,110.302895 113.294472,136.587631 
	C105.095390,153.284073 98.010628,170.566559 91.208321,187.893311 
	C87.932686,196.236969 86.464745,205.290314 84.100677,214.437988 
	C83.942215,218.679947 82.633469,223.034378 84.009712,226.233856 
	C88.202980,235.982330 92.766914,245.701660 98.388672,254.679596 
	C112.178345,276.701660 129.058807,296.414062 145.597626,315.987915 
	C133.633759,315.995972 122.142860,315.974365 110.652130,316.007751 
	C101.999046,316.032928 95.071960,321.544220 94.075485,330.005005 
	C93.225258,337.223999 93.290298,344.550781 92.639168,351.991821 
	C85.131004,358.694641 77.046974,364.502472 70.915123,371.923370 
	C56.512653,389.353577 46.525360,409.419434 38.963955,430.709991 
	C31.725792,451.090302 26.903130,472.070618 23.029182,493.300781 
	C21.691101,500.633728 20.502071,507.906860 28.000000,513.000000 
z"/>
<path fill="#135370" opacity="1.000000" stroke="none" 
	d="
M232.941711,4.890676 
	C236.860031,3.842225 240.778336,2.793775 244.848328,1.372662 
	C252.687576,1.000000 260.375153,1.000000 268.531372,1.000000 
	C277.317291,3.821067 286.034119,5.819215 293.873413,9.624912 
	C313.606598,19.204655 329.364166,33.830750 343.887543,50.151012 
	C356.957031,64.837502 368.192352,80.760582 378.630371,97.283241 
	C384.677826,106.855919 389.965149,116.920135 395.371887,126.883965 
	C407.816010,149.816742 418.363708,173.588257 426.106659,198.533310 
	C428.068298,204.853043 429.826080,211.303436 430.874603,217.822952 
	C432.344788,226.963959 427.928406,234.855515 423.260376,242.003159 
	C413.065826,257.612915 402.401123,272.940369 391.340820,287.950134 
	C385.322876,296.116974 378.089996,303.387054 371.434875,311.087311 
	C370.269379,312.435852 369.251465,313.911926 367.592255,315.663025 
	C362.674530,316.064026 358.329895,316.131134 353.521179,316.136963 
	C337.982971,316.052155 322.908813,316.028625 307.631165,315.753967 
	C300.125153,311.691864 296.584930,305.654083 296.652893,297.432098 
	C296.681580,293.962189 296.588043,290.491302 296.797668,286.742035 
	C319.878937,276.650818 337.877197,261.296875 349.920776,239.453949 
	C353.802307,232.414230 356.647980,224.803375 360.424072,217.565948 
	C364.711334,217.695007 368.550140,217.881470 372.371063,217.696899 
	C383.672150,217.151062 390.525604,210.492950 391.389923,199.242142 
	C391.631744,196.094452 391.271576,192.896027 391.578217,189.759064 
	C391.881561,186.655518 390.462402,185.318176 387.771759,184.326111 
	C380.785614,181.750290 373.880493,178.954727 366.958740,175.845184 
	C366.428375,173.540680 366.145966,171.510056 365.295288,169.754822 
	C356.831390,152.290009 348.658752,134.669006 339.658691,117.482315 
	C323.154053,85.964806 302.940979,57.033638 276.359833,33.120239 
	C267.930481,25.536886 258.192993,19.342577 248.722565,13.008349 
	C243.837692,9.741159 238.225357,7.561644 232.941711,4.890676 
z"/>
<path fill="#9C9DA0" opacity="1.000000" stroke="none" 
	d="
M387.000000,513.000000 
	C285.311890,513.000000 183.623810,513.000000 81.244774,512.737305 
	C73.507690,509.720490 70.401878,504.433838 71.727394,497.450439 
	C73.131218,490.054535 76.948196,486.947662 84.873497,486.845856 
	C87.850792,486.807617 90.829887,486.909271 94.293182,486.938721 
	C182.669876,486.928772 270.561554,486.928528 358.453217,486.918427 
	C360.613983,486.918152 362.774750,486.807892 365.403870,486.812195 
	C372.902802,486.895081 379.933350,486.914764 386.974426,487.407074 
	C386.989990,496.253143 386.994995,504.626587 387.000000,513.000000 
z"/>
<path fill="#1E608B" opacity="1.000000" stroke="none" 
	d="
M93.808159,486.947144 
	C90.829887,486.909271 87.850792,486.807617 84.873497,486.845856 
	C76.948196,486.947662 73.131218,490.054535 71.727394,497.450439 
	C70.401878,504.433838 73.507690,509.720490 80.776917,512.737305 
	C63.645771,513.000000 46.291542,513.000000 28.468658,513.000000 
	C20.502071,507.906860 21.691101,500.633728 23.029182,493.300781 
	C26.903130,472.070618 31.725792,451.090302 38.963955,430.709991 
	C46.525360,409.419434 56.512653,389.353577 70.915123,371.923370 
	C77.046974,364.502472 85.131004,358.694641 92.988907,352.256897 
	C93.734276,352.680664 93.892632,353.001282 93.892479,353.321869 
	C93.871895,397.863647 93.839760,442.405396 93.808159,486.947144 
z"/>
<path fill="#135370" opacity="1.000000" stroke="none" 
	d="
M420.969879,351.847778 
	C434.760620,360.971039 445.191101,373.267548 453.977509,387.059753 
	C467.761414,408.696747 476.940369,432.291016 482.925964,457.129517 
	C486.261627,470.971497 489.107788,484.938690 491.845978,498.913788 
	C492.911926,504.354034 491.540985,509.314209 486.090424,512.654175 
	C469.312439,513.000000 452.624878,513.000000 435.601715,512.689087 
	C440.816315,509.161835 443.403625,504.264374 442.714203,497.972839 
	C442.011505,491.559937 438.133972,487.705322 431.903534,485.819946 
	C428.069580,469.930664 424.192810,454.481842 420.239380,438.568359 
	C420.197540,409.734772 420.232361,381.365845 420.429871,352.909821 
	C420.788727,352.667053 420.944214,352.477905 421.115906,352.136078 
	C421.172791,352.016876 420.969879,351.847778 420.969879,351.847778 
z"/>
<path fill="#8C8F93" opacity="1.000000" stroke="none" 
	d="
M431.860687,486.260376 
	C438.133972,487.705322 442.011505,491.559937 442.714203,497.972839 
	C443.403625,504.264374 440.816315,509.161835 435.133057,512.689087 
	C419.312439,513.000000 403.624878,513.000000 387.468658,513.000000 
	C386.994995,504.626587 386.989990,496.253143 387.442535,487.387421 
	C398.639038,486.596588 409.377960,486.298065 420.567261,486.019714 
	C424.631989,486.113373 428.246338,486.186859 431.860687,486.260376 
z"/>
<path fill="#C2C4C6" opacity="1.000000" stroke="none" 
	d="
M420.116913,485.999512 
	C409.377960,486.298065 398.639038,486.596588 387.432007,486.914764 
	C379.933350,486.914764 372.902802,486.895081 365.423645,486.371155 
	C364.982513,436.457153 365.004639,387.047455 364.977783,337.637756 
	C364.974670,331.883118 363.679352,326.411011 359.886139,321.894531 
	C358.137482,319.812439 355.965393,318.085968 353.985291,316.198242 
	C358.329895,316.131134 362.674530,316.064026 367.480286,315.991302 
	C378.938690,315.991394 389.960205,316.455383 400.926483,315.875214 
	C412.101135,315.283997 420.550751,322.351257 420.957550,335.435638 
	C421.117981,340.596130 420.987305,345.765625 420.979553,351.389404 
	C420.969879,351.847778 421.172791,352.016876 420.874664,352.101685 
	C420.198212,352.351501 420.095093,352.621643 420.267181,352.996887 
	C420.232361,381.365845 420.197540,409.734772 420.145142,439.025818 
	C420.124054,455.298462 420.120483,470.648987 420.116913,485.999512 
z"/>
<path fill="#CFCFCF" opacity="1.000000" stroke="none" 
	d="
M353.521179,316.136963 
	C355.965393,318.085968 358.137482,319.812439 359.886139,321.894531 
	C363.679352,326.411011 364.974670,331.883118 364.977783,337.637756 
	C365.004639,387.047455 364.982513,436.457153 364.955261,486.307892 
	C362.774750,486.807892 360.613983,486.918152 358.453217,486.918427 
	C270.561554,486.928528 182.669876,486.928772 94.293182,486.938721 
	C93.839760,442.405396 93.871895,397.863647 93.892479,353.321869 
	C93.892632,353.001282 93.734276,352.680664 93.300201,352.094971 
	C93.290298,344.550781 93.225258,337.223999 94.075485,330.005005 
	C95.071960,321.544220 101.999046,316.032928 110.652130,316.007751 
	C122.142860,315.974365 133.633759,315.995972 146.061554,316.004608 
	C166.324631,315.999817 185.650711,315.984344 205.446228,315.969879 
	C239.888657,315.982300 273.861664,315.993683 307.834686,316.005066 
	C322.908813,316.028625 337.982971,316.052155 353.521179,316.136963 
M278.941223,397.808777 
	C275.934845,391.458374 271.086609,387.024384 264.385193,385.103912 
	C245.989090,379.832123 229.853226,394.320465 233.137558,413.322632 
	C235.213821,425.335297 246.912720,433.933624 258.543976,432.725800 
	C276.344147,430.877350 285.332001,415.490753 278.941223,397.808777 
z"/>
<path fill="#1E608B" opacity="1.000000" stroke="none" 
	d="
M232.550827,4.932229 
	C238.225357,7.561644 243.837692,9.741159 248.722565,13.008349 
	C258.192993,19.342577 267.930481,25.536886 276.359833,33.120239 
	C302.940979,57.033638 323.154053,85.964806 339.658691,117.482315 
	C348.658752,134.669006 356.831390,152.290009 365.295288,169.754822 
	C366.145966,171.510056 366.428375,173.540680 366.587646,175.827759 
	C365.465057,176.151291 364.729248,176.090561 363.698975,175.812714 
	C344.931335,171.796890 326.458191,167.998169 307.565918,164.104919 
	C301.369354,163.386261 295.604156,162.599182 289.812531,162.165329 
	C259.562622,159.899231 229.332123,160.236938 199.379425,165.169739 
	C183.078064,167.854340 167.047241,172.181763 150.499405,175.791672 
	C140.912460,179.255569 131.720505,182.696030 122.157013,186.194519 
	C109.869637,191.715576 98.354073,197.771164 89.580948,207.910690 
	C87.801918,209.966797 85.980247,211.986053 84.178230,214.022308 
	C86.464745,205.290314 87.932686,196.236969 91.208321,187.893311 
	C98.010628,170.566559 105.095390,153.284073 113.294472,136.587631 
	C126.202057,110.302895 141.257828,85.119598 159.559830,62.243271 
	C176.415863,41.174309 195.103653,21.699093 219.939941,9.586703 
	C223.836426,7.686429 228.077957,6.493680 232.550827,4.932229 
z"/>
<path fill="#145370" opacity="1.000000" stroke="none" 
	d="
M84.100677,214.437988 
	C85.980247,211.986053 87.801918,209.966797 89.580948,207.910690 
	C98.354073,197.771164 109.869637,191.715576 122.144318,186.649429 
	C122.498901,190.520432 122.402367,193.997314 122.506844,197.468155 
	C122.896515,210.413528 130.170654,217.538635 143.120560,217.744019 
	C147.087341,217.806915 151.054230,217.863251 155.102356,218.285889 
	C165.091660,248.538971 183.949738,270.585602 212.498718,284.191589 
	C213.534836,284.685394 214.923691,285.890015 214.959793,286.809998 
	C215.390121,297.779541 216.644028,309.120941 204.976791,315.968872 
	C185.650711,315.984344 166.324631,315.999817 146.534607,315.998596 
	C129.058807,296.414062 112.178345,276.701660 98.388672,254.679596 
	C92.766914,245.701660 88.202980,235.982330 84.009712,226.233856 
	C82.633469,223.034378 83.942215,218.679947 84.100677,214.437988 
z"/>
<path fill="#FDD8A8" opacity="1.000000" stroke="none" 
	d="
M205.446228,315.969910 
	C216.644028,309.120941 215.390121,297.779541 214.959793,286.809998 
	C214.923691,285.890015 213.534836,284.685394 212.498718,284.191589 
	C183.949738,270.585602 165.091660,248.538971 155.056061,217.903427 
	C153.650436,209.006851 152.372391,200.856049 151.555862,192.713486 
	C160.890411,192.721725 169.763428,192.721725 179.110870,192.721725 
	C179.110870,197.601837 179.058762,201.865845 179.122543,206.128128 
	C179.230423,213.336472 181.687943,215.814209 189.406616,216.280060 
	C201.199097,216.404602 212.535172,216.200500 223.858597,216.490616 
	C237.873657,216.849701 245.272964,206.922440 244.452057,196.006317 
	C252.230423,195.628052 259.633484,195.220657 267.028717,195.332306 
	C268.038025,195.347549 269.685883,197.866516 269.878601,199.374435 
	C270.689331,205.717285 273.172516,210.799454 279.310608,214.133591 
	C287.385559,215.112808 295.183197,215.814423 302.981018,216.897781 
	C302.545807,219.373489 302.429535,221.600266 301.622620,223.539658 
	C296.828827,235.061371 291.251923,246.038254 283.036499,255.720215 
	C273.198578,267.314240 261.780121,276.551086 248.049545,282.963226 
	C242.892715,285.371429 237.652740,287.601685 231.787949,290.207550 
	C233.792358,290.939270 235.099365,291.627289 236.486969,291.890686 
	C252.315048,294.894775 268.072815,294.762299 283.707001,290.598694 
	C288.001068,289.455139 292.269745,288.216064 296.550049,287.020844 
	C296.588043,290.491302 296.681580,293.962189 296.652893,297.432098 
	C296.584930,305.654083 300.125153,311.691864 307.631165,315.753967 
	C273.861664,315.993683 239.888657,315.982300 205.446228,315.969910 
z"/>
<path fill="#F3CD9F" opacity="1.000000" stroke="none" 
	d="
M296.797668,286.742035 
	C292.269745,288.216064 288.001068,289.455139 283.707001,290.598694 
	C268.072815,294.762299 252.315048,294.894775 236.486969,291.890686 
	C235.099365,291.627289 233.792358,290.939270 231.787949,290.207550 
	C237.652740,287.601685 242.892715,285.371429 248.049545,282.963226 
	C261.780121,276.551086 273.198578,267.314240 283.036499,255.720215 
	C291.251923,246.038254 296.828827,235.061371 301.622620,223.539658 
	C302.429535,221.600266 302.545807,219.373489 303.448639,216.857224 
	C311.225952,216.421249 318.540649,216.566910 325.844177,216.345123 
	C332.057648,216.156433 334.814606,213.156143 334.941711,206.941238 
	C335.036774,202.291260 334.982239,197.638214 335.456177,192.895233 
	C344.911316,192.777847 353.904602,192.751770 362.928162,193.198792 
	C361.961456,201.599182 360.964478,209.526474 359.967468,217.453781 
	C356.647980,224.803375 353.802307,232.414230 349.920776,239.453949 
	C337.877197,261.296875 319.878937,276.650818 296.797668,286.742035 
z"/>
<path fill="#F1C691" opacity="1.000000" stroke="none" 
	d="
M360.424072,217.565948 
	C360.964478,209.526474 361.961456,201.599182 363.005981,192.766846 
	C363.030243,188.577652 363.007050,185.293472 363.269562,181.751007 
	C363.701355,179.671753 363.847412,177.850784 363.993469,176.029816 
	C364.729248,176.090561 365.465057,176.151291 366.571930,176.229431 
	C373.880493,178.954727 380.785614,181.750290 387.771759,184.326111 
	C390.462402,185.318176 391.881561,186.655518 391.578217,189.759064 
	C391.271576,192.896027 391.631744,196.094452 391.389923,199.242142 
	C390.525604,210.492950 383.672150,217.151062 372.371063,217.696899 
	C368.550140,217.881470 364.711334,217.695007 360.424072,217.565948 
z"/>
<path fill="#26648A" opacity="1.000000" stroke="none" 
	d="
M420.567261,486.019714 
	C420.120483,470.648987 420.124054,455.298462 420.221802,439.490479 
	C424.192810,454.481842 428.069580,469.930664 431.903534,485.819916 
	C428.246338,486.186859 424.631989,486.113373 420.567261,486.019714 
z"/>
<path fill="#26648A" opacity="1.000000" stroke="none" 
	d="
M420.429871,352.909821 
	C420.095093,352.621643 420.198212,352.351501 420.817749,352.220886 
	C420.944214,352.477905 420.788727,352.667053 420.429871,352.909821 
z"/>
<path fill="#FFFFFF" opacity="1.000000" stroke="none" 
	d="
M279.101349,398.165588 
	C285.332001,415.490753 276.344147,430.877350 258.543976,432.725800 
	C246.912720,433.933624 235.213821,425.335297 233.137558,413.322632 
	C229.853226,394.320465 245.989090,379.832123 264.385193,385.103912 
	C271.086609,387.024384 275.934845,391.458374 279.101349,398.165588 
z"/>
<path fill="#FCD8A7" opacity="1.000000" stroke="none" 
	d="
M150.894409,175.768250 
	C167.047241,172.181763 183.078064,167.854340 199.379425,165.169739 
	C229.332123,160.236938 259.562622,159.899231 289.812531,162.165329 
	C295.604156,162.599182 301.369354,163.386261 307.570160,164.554855 
	C307.992218,169.350723 307.990814,173.602142 307.526367,177.925873 
	C297.724731,178.080887 288.386139,178.163559 278.672485,178.190063 
	C275.102478,179.998291 271.907532,181.862671 268.712585,183.727051 
	C268.896912,184.106216 269.081268,184.485397 269.265594,184.864563 
	C260.866547,184.864563 252.467529,184.864563 244.004913,184.515884 
	C242.638229,180.280151 239.985062,178.050476 235.844650,178.056564 
	C219.915634,178.079971 203.986740,178.190369 187.679474,178.205841 
	C180.628204,181.816132 173.471359,182.582672 165.979614,182.080994 
	C161.008179,181.748077 155.996567,182.015549 150.998047,181.569519 
	C150.960266,179.339249 150.927338,177.553741 150.894409,175.768250 
z"/>
<path fill="#F1C692" opacity="1.000000" stroke="none" 
	d="
M150.499405,175.791672 
	C150.927338,177.553741 150.960266,179.339249 150.916046,182.016388 
	C150.924042,186.173782 151.009186,189.439514 151.094330,192.705246 
	C152.372391,200.856049 153.650436,209.006851 154.974777,217.540131 
	C151.054230,217.863251 147.087341,217.806915 143.120560,217.744019 
	C130.170654,217.538635 122.896515,210.413528 122.506844,197.468155 
	C122.402367,193.997314 122.498901,190.520432 122.515869,186.591415 
	C131.720505,182.696030 140.912460,179.255569 150.499405,175.791672 
z"/>
<path fill="#F1CD9F" opacity="1.000000" stroke="none" 
	d="
M307.989441,177.853546 
	C307.990814,173.602142 307.992218,169.350723 307.989319,164.649384 
	C326.458191,167.998169 344.931335,171.796890 363.698975,175.812714 
	C363.847412,177.850784 363.701355,179.671753 362.801971,181.751709 
	C352.691376,182.036957 343.334045,182.063232 333.702454,181.861313 
	C330.874817,180.431290 328.397736,178.444763 325.752533,178.187622 
	C319.876221,177.616379 313.915680,177.911560 307.989441,177.853546 
z"/>
<path fill="#363635" opacity="1.000000" stroke="none" 
	d="
M307.526367,177.925873 
	C313.915680,177.911560 319.876221,177.616379 325.752533,178.187622 
	C328.397736,178.444763 330.874817,180.431290 333.724854,182.269348 
	C334.345825,186.265884 334.670074,189.626205 334.994324,192.986542 
	C334.982239,197.638214 335.036774,202.291260 334.941711,206.941238 
	C334.814606,213.156143 332.057648,216.156433 325.844177,216.345123 
	C318.540649,216.566910 311.225952,216.421249 303.448456,216.475494 
	C295.183197,215.814423 287.385559,215.112808 279.308624,213.675171 
	C279.035400,201.374847 279.041473,189.810532 279.047577,178.246231 
	C288.386139,178.163559 297.724731,178.080887 307.526367,177.925873 
z"/>
<path fill="#363636" opacity="1.000000" stroke="none" 
	d="
M188.057800,178.268341 
	C203.986740,178.190369 219.915634,178.079971 235.844650,178.056564 
	C239.985062,178.050476 242.638229,180.280151 243.985992,184.985260 
	C244.045242,189.249176 244.059769,192.695038 244.074295,196.140884 
	C245.272964,206.922440 237.873657,216.849701 223.858597,216.490616 
	C212.535172,216.200500 201.199097,216.404602 189.410736,215.798477 
	C188.654495,202.894440 188.356140,190.581390 188.057800,178.268341 
z"/>
<path fill="#525150" opacity="1.000000" stroke="none" 
	d="
M187.679474,178.205841 
	C188.356140,190.581390 188.654495,202.894440 188.948715,215.689072 
	C181.687943,215.814209 179.230423,213.336472 179.122543,206.128128 
	C179.058762,201.865845 179.110870,197.601837 179.110870,192.721725 
	C169.763428,192.721725 160.890411,192.721725 151.555847,192.713486 
	C151.009186,189.439514 150.924042,186.173782 150.920914,182.461166 
	C155.996567,182.015549 161.008179,181.748077 165.979614,182.080994 
	C173.471359,182.582672 180.628204,181.816132 187.679474,178.205841 
z"/>
<path fill="#504F4E" opacity="1.000000" stroke="none" 
	d="
M244.452057,196.006317 
	C244.059769,192.695038 244.045242,189.249176 244.049606,185.333954 
	C252.467529,184.864563 260.866547,184.864563 269.265594,184.864563 
	C269.081268,184.485397 268.896912,184.106216 268.712585,183.727051 
	C271.907532,181.862671 275.102478,179.998291 278.672485,178.190063 
	C279.041473,189.810532 279.035400,201.374847 279.031311,213.397583 
	C273.172516,210.799454 270.689331,205.717285 269.878601,199.374435 
	C269.685883,197.866516 268.038025,195.347549 267.028717,195.332306 
	C259.633484,195.220657 252.230423,195.628052 244.452057,196.006317 
z"/>
<path fill="#545250" opacity="1.000000" stroke="none" 
	d="
M335.456177,192.895233 
	C334.670074,189.626205 334.345825,186.265884 333.999146,182.497528 
	C343.334045,182.063232 352.691376,182.036957 362.516266,182.010010 
	C363.007050,185.293472 363.030243,188.577652 362.975677,192.293747 
	C353.904602,192.751770 344.911316,192.777847 335.456177,192.895233 
z"/>
</svg>