<svg version="1.1" id="Layer_1" xmlns="http://www.w3.org/2000/svg" xmlns:xlink="http://www.w3.org/1999/xlink" x="0px" y="0px"
	 width="100%" viewBox="0 0 512 512" enable-background="new 0 0 512 512" xml:space="preserve">
<path fill="#000000" opacity="1.000000" stroke="none" 
	d="
M274.000000,1.000002 
	C353.621826,1.000000 433.243652,1.000000 512.932739,1.000000 
	C512.932739,171.666656 512.932739,342.333313 512.927917,513.000000 
	C504.594513,513.000000 496.265900,513.000000 487.412506,512.641541 
	C491.175262,508.904907 492.917572,504.418518 491.864960,499.159210 
	C489.025513,484.972321 486.372467,470.729462 482.912537,456.689423 
	C476.514252,430.725800 466.847839,406.032471 451.866577,383.708588 
	C443.526733,371.281250 433.779022,360.085632 421.010071,351.418976 
	C420.667572,344.219727 420.502686,337.463196 419.962555,330.736847 
	C419.270782,322.121613 412.341888,316.032135 403.573853,315.997711 
	C391.752991,315.951294 379.932098,315.908691 368.112732,315.524841 
	C371.525116,311.179932 374.898346,307.141785 378.353241,303.174774 
	C395.089874,283.957306 410.716278,263.895477 423.465851,241.784790 
	C427.724609,234.399170 432.421234,226.660507 430.834106,217.547791 
	C429.564606,210.258530 427.758575,202.990875 425.414520,195.972855 
	C414.587982,163.558517 399.943359,132.911743 382.381348,103.597534 
	C365.452179,75.339615 346.246704,48.984123 320.997192,27.470959 
	C307.893402,16.306253 293.397308,7.662325 276.689758,2.992979 
	C275.685913,2.712438 274.891724,1.681675 274.000000,1.000002 
z"/>
<path fill="#000000" opacity="1.000000" stroke="none" 
	d="
M27.000000,513.000000 
	C18.338215,513.000000 9.676430,513.000000 1.007322,513.000000 
	C1.000000,512.838318 1.000000,512.676636 1.000000,512.514954 
	C1.000000,342.110992 1.000000,171.707016 1.000000,1.000000 
	C80.353973,1.000000 159.708328,1.000000 239.563675,1.371803 
	C237.698120,2.799269 235.331589,3.854933 232.581619,4.960959 
	C214.803757,9.772124 200.773254,20.313276 187.739395,32.030891 
	C172.437195,45.787777 159.475204,61.713188 147.694794,78.620255 
	C126.932907,108.417397 110.037048,140.297852 96.739006,174.013550 
	C91.628021,186.971893 88.287262,200.628433 84.034576,214.374298 
	C83.873459,218.669556 82.537003,223.141571 83.995468,226.338547 
	C88.904396,237.099045 93.675423,248.228363 100.566154,257.715271 
	C115.006699,277.596466 130.763290,296.521729 145.517029,315.911591 
	C133.279846,315.989105 121.504929,315.956451 109.730446,316.013672 
	C102.076965,316.050842 94.748055,322.283264 94.070602,329.787567 
	C93.409424,337.111450 93.343315,344.489075 92.703888,352.000732 
	C85.168083,358.716125 77.044174,364.531555 70.900948,371.980438 
	C56.420506,389.538574 45.767105,409.522064 39.017433,431.255737 
	C33.424221,449.265686 28.368500,467.508301 24.428577,485.937317 
	C22.548929,494.729370 18.307608,504.775787 27.000000,513.000000 
z"/>
<path fill="#135370" opacity="1.000000" stroke="none" 
	d="
M232.965042,4.910600 
	C235.331589,3.854933 237.698120,2.799269 240.032333,1.371803 
	C251.020889,1.000000 262.041779,1.000000 273.531342,1.000002 
	C274.891724,1.681675 275.685913,2.712438 276.689758,2.992979 
	C293.397308,7.662325 307.893402,16.306253 320.997192,27.470959 
	C346.246704,48.984123 365.452179,75.339615 382.381348,103.597534 
	C399.943359,132.911743 414.587982,163.558517 425.414520,195.972855 
	C427.758575,202.990875 429.564606,210.258530 430.834106,217.547791 
	C432.421234,226.660507 427.724609,234.399170 423.465851,241.784790 
	C410.716278,263.895477 395.089874,283.957306 378.353241,303.174774 
	C374.898346,307.141785 371.525116,311.179932 367.642914,315.582153 
	C362.775085,316.052124 358.378601,316.125214 353.518005,316.138855 
	C337.957947,316.046143 322.861969,316.012878 307.566223,315.730896 
	C300.084320,311.660278 296.596802,305.591003 296.622345,297.414581 
	C296.633148,293.950226 296.576080,290.485657 296.796692,286.743286 
	C319.706940,276.724182 337.628937,261.512451 349.679688,239.892395 
	C353.673523,232.727112 356.565216,224.947510 360.420166,217.549377 
	C365.857452,217.524551 370.886749,217.805649 375.801910,217.184097 
	C384.464813,216.088638 390.445221,209.516205 391.167450,200.786682 
	C391.468201,197.151169 391.164856,193.465836 391.461884,189.829773 
	C391.706482,186.834869 390.550873,185.334915 387.778717,184.324051 
	C380.794220,181.777115 373.903809,178.972107 366.960632,175.870758 
	C366.524200,173.868317 366.325378,172.164017 365.646912,170.678802 
	C359.223846,156.618149 353.362976,142.251251 346.097168,128.635864 
	C333.024811,104.139442 318.991516,80.162010 300.905548,58.875706 
	C285.346283,40.563240 268.874054,23.270271 247.149994,12.027091 
	C242.452271,9.595806 237.694931,7.279739 232.965042,4.910600 
z"/>
<path fill="#9C9DA0" opacity="1.000000" stroke="none" 
	d="
M387.000000,513.000000 
	C285.311890,513.000000 183.623810,513.000000 81.202972,512.781494 
	C73.067627,509.241180 70.408554,504.319916 71.878326,496.661530 
	C73.134590,490.115662 77.466965,486.875305 85.322311,486.730957 
	C88.148941,486.679016 90.979362,486.833160 94.288177,486.877319 
	C182.154709,486.854279 269.541107,486.849976 356.927521,486.826660 
	C359.583618,486.825958 362.239624,486.627167 365.364838,486.597778 
	C372.864288,486.738953 379.894562,486.803070 386.938721,487.343994 
	C386.968384,496.213837 386.984192,504.606934 387.000000,513.000000 
z"/>
<path fill="#1E608B" opacity="1.000000" stroke="none" 
	d="
M93.808052,486.893250 
	C90.979362,486.833160 88.148941,486.679016 85.322311,486.730957 
	C77.466965,486.875305 73.134590,490.115662 71.878326,496.661530 
	C70.408554,504.319916 73.067627,509.241180 80.735123,512.781494 
	C63.312439,513.000000 45.624878,513.000000 27.468658,513.000000 
	C18.307608,504.775787 22.548929,494.729370 24.428577,485.937317 
	C28.368500,467.508301 33.424221,449.265686 39.017433,431.255737 
	C45.767105,409.522064 56.420506,389.538574 70.900948,371.980438 
	C77.044174,364.531555 85.168083,358.716125 93.036667,352.287598 
	C93.723701,397.242310 93.765877,442.067780 93.808052,486.893250 
z"/>
<path fill="#135370" opacity="1.000000" stroke="none" 
	d="
M421.020935,351.875122 
	C433.779022,360.085632 443.526733,371.281250 451.866577,383.708588 
	C466.847839,406.032471 476.514252,430.725800 482.912537,456.689423 
	C486.372467,470.729462 489.025513,484.972321 491.864960,499.159210 
	C492.917572,504.418518 491.175262,508.904907 486.943848,512.641541 
	C469.979095,513.000000 452.958221,513.000000 435.628296,512.704102 
	C440.816589,509.061371 443.421478,504.209900 442.612030,497.781921 
	C441.811646,491.426117 438.016907,487.731659 431.857788,485.929565 
	C428.025848,469.992096 424.172791,454.497681 420.247986,438.539429 
	C420.156952,410.729156 420.124481,383.382751 420.157013,356.036438 
	C420.158691,354.648987 420.720154,353.262207 421.020935,351.875122 
z"/>
<path fill="#8C8F93" opacity="1.000000" stroke="none" 
	d="
M431.836670,486.372681 
	C438.016907,487.731659 441.811646,491.426117 442.612030,497.781921 
	C443.421478,504.209900 440.816589,509.061371 435.159668,512.704102 
	C419.312439,513.000000 403.624878,513.000000 387.468658,513.000000 
	C386.984192,504.606934 386.968384,496.213837 387.367310,487.296539 
	C398.562195,486.517273 409.342346,486.262238 420.572327,486.040039 
	C424.627045,486.172791 428.231842,486.272736 431.836670,486.372681 
z"/>
<path fill="#C2C4C6" opacity="1.000000" stroke="none" 
	d="
M420.122467,486.007202 
	C409.342346,486.262238 398.562195,486.517273 387.353455,486.819763 
	C379.894562,486.803070 372.864288,486.738953 365.388367,486.177124 
	C364.958740,436.420319 364.995514,387.161194 364.963531,337.902130 
	C364.959686,331.965302 363.675049,326.288239 359.654724,321.649017 
	C357.944519,319.675537 355.883636,318.006012 353.982117,316.198303 
	C358.378601,316.125214 362.775085,316.052124 367.641418,315.921722 
	C379.932098,315.908691 391.752991,315.951294 403.573853,315.997711 
	C412.341888,316.032135 419.270782,322.121613 419.962555,330.736847 
	C420.502686,337.463196 420.667572,344.219727 421.010071,351.418976 
	C420.720154,353.262207 420.158691,354.648987 420.157013,356.036438 
	C420.124481,383.382751 420.156952,410.729156 420.162781,439.001556 
	C420.140381,455.287445 420.131409,470.647339 420.122467,486.007202 
z"/>
<path fill="#CFCFCF" opacity="1.000000" stroke="none" 
	d="
M353.518005,316.138855 
	C355.883636,318.006012 357.944519,319.675537 359.654724,321.649017 
	C363.675049,326.288239 364.959686,331.965302 364.963531,337.902130 
	C364.995514,387.161194 364.958740,436.420319 364.919220,486.100098 
	C362.239624,486.627167 359.583618,486.825958 356.927521,486.826660 
	C269.541107,486.849976 182.154709,486.854279 94.288177,486.877319 
	C93.765877,442.067780 93.723701,397.242310 93.348747,352.129974 
	C93.343315,344.489075 93.409424,337.111450 94.070602,329.787567 
	C94.748055,322.283264 102.076965,316.050842 109.730446,316.013672 
	C121.504929,315.956451 133.279846,315.989105 145.980133,315.985687 
	C164.948044,316.020752 182.990402,316.074677 201.032669,316.051086 
	C202.647842,316.048950 204.262360,315.544617 206.262634,315.446289 
	C208.129883,315.754547 209.611618,316.007782 211.093430,316.008118 
	C243.317627,316.015564 275.541809,315.994904 307.766022,315.979614 
	C322.861969,316.012878 337.957947,316.046143 353.518005,316.138855 
M264.677643,431.476349 
	C266.042694,430.864105 267.454010,430.337158 268.765381,429.625946 
	C278.063965,424.582825 282.591736,414.932098 280.906982,403.845551 
	C279.460236,394.325256 271.263641,386.160034 261.294098,384.307709 
	C251.460205,382.480621 241.062332,387.078674 236.154907,395.838074 
	C231.284897,404.530701 231.074646,413.606659 236.786850,421.826324 
	C243.305832,431.206909 252.611267,434.619385 264.677643,431.476349 
z"/>
<path fill="#1E608B" opacity="1.000000" stroke="none" 
	d="
M232.581619,4.960963 
	C237.694931,7.279739 242.452271,9.595806 247.149994,12.027091 
	C268.874054,23.270271 285.346283,40.563240 300.905548,58.875706 
	C318.991516,80.162010 333.024811,104.139442 346.097168,128.635864 
	C353.362976,142.251251 359.223846,156.618149 365.646912,170.678802 
	C366.325378,172.164017 366.524200,173.868317 366.585022,175.853531 
	C365.482910,176.167755 364.741333,176.099411 363.687775,175.831253 
	C344.912537,171.820831 326.449249,168.010223 307.567322,164.104691 
	C300.207855,163.338165 293.275818,162.553101 286.324646,162.015091 
	C259.736511,159.957153 233.119156,160.198929 206.782425,164.194122 
	C187.996460,167.043884 169.506180,171.842667 150.490234,175.791077 
	C140.908920,179.252960 131.721329,182.695480 122.173096,186.244217 
	C109.841904,191.585434 98.507683,197.770798 89.715462,207.771912 
	C87.881271,209.858276 85.999664,211.902954 84.139908,213.966843 
	C88.287262,200.628433 91.628021,186.971893 96.739006,174.013550 
	C110.037048,140.297852 126.932907,108.417397 147.694794,78.620255 
	C159.475204,61.713188 172.437195,45.787777 187.739395,32.030891 
	C200.773254,20.313276 214.803757,9.772124 232.581619,4.960963 
z"/>
<path fill="#135370" opacity="1.000000" stroke="none" 
	d="
M84.034576,214.374298 
	C85.999664,211.902954 87.881271,209.858276 89.715462,207.771912 
	C98.507683,197.770798 109.841904,191.585434 122.195892,186.699951 
	C122.587326,190.686661 122.519707,194.325928 122.617111,197.960754 
	C122.942734,210.112228 129.989502,217.240112 142.130554,217.687912 
	C146.421707,217.846176 150.718887,217.841507 155.101013,218.274048 
	C164.208038,246.327530 181.168335,267.705444 207.020081,281.161896 
	C213.623291,284.598999 215.466797,288.126709 215.316162,295.044586 
	C215.132385,303.484589 213.174240,310.454529 205.877182,315.273529 
	C204.262360,315.544617 202.647842,316.048950 201.032669,316.051086 
	C182.990402,316.074677 164.948044,316.020752 146.442596,315.913635 
	C130.763290,296.521729 115.006699,277.596466 100.566154,257.715271 
	C93.675423,248.228363 88.904396,237.099045 83.995468,226.338547 
	C82.537003,223.141571 83.873459,218.669556 84.034576,214.374298 
z"/>
<path fill="#FDD8A8" opacity="1.000000" stroke="none" 
	d="
M206.262634,315.446289 
	C213.174240,310.454529 215.132385,303.484589 215.316162,295.044586 
	C215.466797,288.126709 213.623291,284.598999 207.020081,281.161896 
	C181.168335,267.705444 164.208038,246.327530 155.029694,217.899536 
	C153.612579,209.008713 152.354462,200.855255 151.558594,192.693756 
	C160.897018,192.685745 169.773193,192.685745 179.131622,192.685745 
	C179.131622,197.946289 179.000046,202.550064 179.164017,207.143280 
	C179.382355,213.259476 181.926849,215.697632 188.451965,216.156525 
	C200.557770,216.370483 212.219177,216.294678 223.874466,216.526794 
	C237.974701,216.807587 245.250153,206.941757 244.451660,195.997955 
	C251.897888,195.577316 258.966949,195.234558 266.040100,195.046432 
	C268.813416,194.972687 269.982758,196.324081 270.090088,199.350449 
	C270.316742,205.740616 273.201660,210.778473 279.309143,214.134186 
	C287.377838,215.111359 295.170837,215.809662 302.958679,216.886597 
	C302.773804,218.575989 302.814301,219.964630 302.382141,221.186050 
	C292.699158,248.552658 275.424988,269.382416 249.254227,282.427856 
	C243.892303,285.100647 238.327896,287.367279 231.927551,290.237885 
	C234.272125,291.038544 235.471558,291.639374 236.736038,291.850250 
	C249.072830,293.907684 261.452972,295.211945 273.852509,292.498199 
	C281.453735,290.834595 288.986420,288.857513 296.549866,287.021179 
	C296.576080,290.485657 296.633148,293.950226 296.622345,297.414581 
	C296.596802,305.591003 300.084320,311.660278 307.566223,315.730896 
	C275.541809,315.994904 243.317627,316.015564 211.093430,316.008118 
	C209.611618,316.007782 208.129883,315.754547 206.262634,315.446289 
z"/>
<path fill="#F3CD9F" opacity="1.000000" stroke="none" 
	d="
M296.796692,286.743286 
	C288.986420,288.857513 281.453735,290.834595 273.852509,292.498199 
	C261.452972,295.211945 249.072830,293.907684 236.736038,291.850250 
	C235.471558,291.639374 234.272125,291.038544 231.927551,290.237885 
	C238.327896,287.367279 243.892303,285.100647 249.254227,282.427856 
	C275.424988,269.382416 292.699158,248.552658 302.382141,221.186050 
	C302.814301,219.964630 302.773804,218.575989 303.429443,216.869781 
	C311.053070,216.472061 318.205292,216.627640 325.347107,216.422043 
	C332.154663,216.226105 334.861084,213.259232 334.948975,206.448151 
	C335.006897,201.960770 334.982605,197.472351 335.454041,192.879257 
	C344.907013,192.756439 353.901062,192.738739 362.916199,193.193726 
	C361.945129,201.593842 360.952972,209.521301 359.960815,217.448761 
	C356.565216,224.947510 353.673523,232.727112 349.679688,239.892395 
	C337.628937,261.512451 319.706940,276.724182 296.796692,286.743286 
z"/>
<path fill="#F1C691" opacity="1.000000" stroke="none" 
	d="
M360.420166,217.549377 
	C360.952972,209.521301 361.945129,201.593842 363.003540,192.760849 
	C363.042999,188.574203 363.016144,185.293106 363.190002,181.690552 
	C363.593719,179.589783 363.796722,177.810425 363.999725,176.031067 
	C364.741333,176.099411 365.482910,176.167755 366.600098,176.253326 
	C373.903809,178.972107 380.794220,181.777115 387.778717,184.324051 
	C390.550873,185.334915 391.706482,186.834869 391.461884,189.829773 
	C391.164856,193.465836 391.468201,197.151169 391.167450,200.786682 
	C390.445221,209.516205 384.464813,216.088638 375.801910,217.184097 
	C370.886749,217.805649 365.857452,217.524551 360.420166,217.549377 
z"/>
<path fill="#26648A" opacity="1.000000" stroke="none" 
	d="
M420.572327,486.040039 
	C420.131409,470.647339 420.140381,455.287445 420.234558,439.465424 
	C424.172791,454.497681 428.025848,469.992096 431.857788,485.929565 
	C428.231842,486.272736 424.627045,486.172791 420.572327,486.040039 
z"/>
<path fill="#FFFFFF" opacity="1.000000" stroke="none" 
	d="
M264.296326,431.600647 
	C252.611267,434.619385 243.305832,431.206909 236.786850,421.826324 
	C231.074646,413.606659 231.284897,404.530701 236.154907,395.838074 
	C241.062332,387.078674 251.460205,382.480621 261.294098,384.307709 
	C271.263641,386.160034 279.460236,394.325256 280.906982,403.845551 
	C282.591736,414.932098 278.063965,424.582825 268.765381,429.625946 
	C267.454010,430.337158 266.042694,430.864105 264.296326,431.600647 
z"/>
<path fill="#FCD8A7" opacity="1.000000" stroke="none" 
	d="
M150.883942,175.771713 
	C169.506180,171.842667 187.996460,167.043884 206.782425,164.194122 
	C233.119156,160.198929 259.736511,159.957153 286.324646,162.015091 
	C293.275818,162.553101 300.207855,163.338165 307.569885,164.555359 
	C307.990356,169.351822 307.989685,173.602676 307.525940,177.925598 
	C297.724976,178.080414 288.387115,178.163193 278.673828,178.194305 
	C275.109283,179.997437 271.920197,181.852234 268.620148,183.771576 
	C260.833130,184.118668 252.451370,184.492264 244.005020,184.517532 
	C242.638992,180.280060 239.978256,178.054382 235.843918,178.059555 
	C219.917007,178.079498 203.990234,178.190567 187.684723,178.211227 
	C180.637039,181.866928 173.462067,182.556931 165.977432,182.079117 
	C161.004578,181.761673 155.995224,182.016113 150.994110,181.569153 
	C150.951996,179.339722 150.917969,177.555725 150.883942,175.771713 
z"/>
<path fill="#F1C692" opacity="1.000000" stroke="none" 
	d="
M150.490234,175.791077 
	C150.917969,177.555725 150.951996,179.339722 150.899551,182.012634 
	C150.907501,186.168289 151.001923,189.435043 151.096359,192.701782 
	C152.354462,200.855255 153.612579,209.008713 154.942001,217.536713 
	C150.718887,217.841507 146.421707,217.846176 142.130554,217.687912 
	C129.989502,217.240112 122.942734,210.112228 122.617111,197.960754 
	C122.519707,194.325928 122.587326,190.686661 122.556534,186.593719 
	C131.721329,182.695480 140.908920,179.252960 150.490234,175.791077 
z"/>
<path fill="#F1CD9F" opacity="1.000000" stroke="none" 
	d="
M307.989014,177.853546 
	C307.989685,173.602676 307.990356,169.351822 307.988525,164.650284 
	C326.449249,168.010223 344.912537,171.820831 363.687775,175.831268 
	C363.796722,177.810425 363.593719,179.589783 362.721619,181.690521 
	C352.694153,182.037918 343.335846,182.063934 333.703430,181.859421 
	C330.875671,180.428970 328.398102,178.445786 325.752869,178.188843 
	C319.876160,177.618011 313.915466,177.912064 307.989014,177.853546 
z"/>
<path fill="#363635" opacity="1.000000" stroke="none" 
	d="
M307.525940,177.925598 
	C313.915466,177.912064 319.876160,177.618011 325.752869,178.188843 
	C328.398102,178.445786 330.875671,180.428970 333.754578,182.263123 
	C334.384918,186.259705 334.690063,189.622055 334.995148,192.984390 
	C334.982605,197.472351 335.006897,201.960770 334.948975,206.448151 
	C334.861084,213.259232 332.154663,216.226105 325.347107,216.422043 
	C318.205292,216.627640 311.053070,216.472061 303.434631,216.491150 
	C295.170837,215.809662 287.377838,215.111359 279.313629,213.674896 
	C279.044739,201.373154 279.046997,189.809570 279.049255,178.245987 
	C288.387115,178.163193 297.724976,178.080414 307.525940,177.925598 
z"/>
<path fill="#363636" opacity="1.000000" stroke="none" 
	d="
M188.063385,178.267670 
	C203.990234,178.190567 219.917007,178.079498 235.843918,178.059555 
	C239.978256,178.054382 242.638992,180.280060 243.993744,184.986908 
	C244.056763,189.248978 244.066437,192.693359 244.076111,196.137741 
	C245.250153,206.941757 237.974701,216.807587 223.874466,216.526794 
	C212.219177,216.294678 200.557770,216.370483 188.459412,215.687653 
	C188.034302,202.799515 188.048843,190.533600 188.063385,178.267670 
z"/>
<path fill="#525150" opacity="1.000000" stroke="none" 
	d="
M187.684708,178.211227 
	C188.048843,190.533600 188.034302,202.799515 188.012329,215.534302 
	C181.926849,215.697632 179.382355,213.259476 179.164017,207.143280 
	C179.000046,202.550064 179.131622,197.946289 179.131622,192.685745 
	C169.773193,192.685745 160.897018,192.685745 151.558594,192.693756 
	C151.001923,189.435043 150.907501,186.168289 150.907639,182.458069 
	C155.995224,182.016113 161.004578,181.761673 165.977432,182.079117 
	C173.462067,182.556931 180.637039,181.866928 187.684708,178.211227 
z"/>
<path fill="#504F4E" opacity="1.000000" stroke="none" 
	d="
M244.451660,195.997955 
	C244.066437,192.693359 244.056763,189.248978 244.058350,185.335236 
	C252.451370,184.492264 260.833130,184.118668 268.620148,183.771576 
	C271.920197,181.852234 275.109283,179.997437 278.673828,178.194305 
	C279.046997,189.809570 279.044739,201.373154 279.037964,213.396027 
	C273.201660,210.778473 270.316742,205.740616 270.090088,199.350449 
	C269.982758,196.324081 268.813416,194.972687 266.040100,195.046432 
	C258.966949,195.234558 251.897888,195.577316 244.451660,195.997955 
z"/>
<path fill="#545250" opacity="1.000000" stroke="none" 
	d="
M335.454071,192.879257 
	C334.690063,189.622055 334.384918,186.259705 334.028656,182.493652 
	C343.335846,182.063934 352.694153,182.037918 362.520905,182.011963 
	C363.016144,185.293106 363.042999,188.574203 362.982483,192.288177 
	C353.901062,192.738739 344.907013,192.756439 335.454071,192.879257 
z"/>
</svg>